<svg xmlns="http://www.w3.org/2000/svg" viewBox="0 0 110 110" class="css-11hrkin"><path fill="none" stroke="currentColor" stroke-width="3" stroke-linecap="round" stroke-linejoin="round" stroke-miterlimit="10" d="M94.4 33.3H15.5V97h78.9V33.3z"></path><path fill="currentColor" stroke="currentColor" stroke-width="3" stroke-linecap="round" stroke-linejoin="round" stroke-miterlimit="10" d="M94.4 19.1H15.5v14.2h78.9V19.1z"></path><path fill="#FFF" d="M24.3 29.9c1.9 0 3.5-1.6 3.5-3.5s-1.6-3.5-3.5-3.5-3.5 1.6-3.5 3.5 1.6 3.5 3.5 3.5zm61.1 0c1.9 0 3.5-1.6 3.5-3.5s-1.6-3.5-3.5-3.5-3.5 1.6-3.5 3.5 1.6 3.5 3.5 3.5z"></path><path fill="none" stroke="currentColor" stroke-width="3" stroke-linecap="round" stroke-linejoin="round" stroke-miterlimit="10" d="M85.5 13.5v12.9M24.3 13.5v12.9"></path><path fill="currentColor" d="M48.9 52.4l-.3 12.2h-3.1l-.3-12.2h3.7zM47 70.1c-.5 0-1.1-.2-1.4-.6-.4-.4-.6-.9-.6-1.4 0-.5.2-1.1.6-1.4.4-.4.9-.6 1.5-.6.5 0 1 .2 1.4.6s.5.8.5 1.3c0 .4-.1.7-.3 1-.2.3-.4.6-.7.7-.3.3-.6.4-1 .4zm9.7-17.7l-.3 12.2h-3.1L53 52.4h3.7zm-1.9 17.7c-.5 0-1.1-.2-1.5-.6-.4-.4-.6-.9-.6-1.4 0-.5.2-1.1.6-1.4.4-.4.9-.6 1.4-.6.5 0 1 .2 1.4.6s.6.9.6 1.4c0 .4-.1.7-.3 1-.2.3-.4.6-.7.7-.2.2-.6.3-.9.3zm9.7-17.7l-.3 12.2H61l-.3-12.2h3.8zm-1.9 17.7c-.5 0-1.1-.2-1.5-.6-.4-.4-.6-.9-.6-1.4 0-.5.2-1.1.6-1.4.4-.4.9-.6 1.4-.6.5 0 1 .2 1.4.6.4.4.6.9.6 1.4 0 .4-.1.7-.3 1-.2.3-.4.6-.7.7-.2.2-.6.3-.9.3z"></path></svg>