<svg xmlns="http://www.w3.org/2000/svg" viewBox="0 0 110 110" class="css-11hrkin"><path fill="none" stroke="currentColor" stroke-width="3" stroke-linecap="round" stroke-linejoin="round" stroke-miterlimit="10" d="M94.4 33.3H15.5V97h78.9V33.3z"></path><path fill="currentColor" stroke="currentColor" stroke-width="3" stroke-linecap="round" stroke-linejoin="round" stroke-miterlimit="10" d="M94.4 19.1H15.5v14.2h78.9V19.1z"></path><path fill="#FFF" d="M24.3 29.9c1.9 0 3.5-1.6 3.5-3.5s-1.6-3.5-3.5-3.5-3.5 1.6-3.5 3.5 1.6 3.5 3.5 3.5zm61.1 0c1.9 0 3.5-1.6 3.5-3.5s-1.6-3.5-3.5-3.5-3.5 1.6-3.5 3.5 1.6 3.5 3.5 3.5z"></path><path fill="none" stroke="currentColor" stroke-width="3" stroke-linecap="round" stroke-linejoin="round" stroke-miterlimit="10" d="M85.5 13.5v12.9M24.3 13.5v12.9"></path><path fill="currentColor" d="M42.2 52.4v17.5h-3.7v-14h-.1l-4 2.5v-3.3l4.3-2.7h3.5zm4.2 17.5v-2.7l6.2-5.8c.5-.5 1-1 1.3-1.4.4-.4.6-.8.8-1.2.2-.4.3-.8.3-1.3s-.1-1-.3-1.3c-.2-.4-.6-.7-1-.9-.4-.2-.9-.3-1.4-.3-.5 0-1 .1-1.4.3-.4.2-.7.5-.9.9-.2.4-.3.9-.3 1.4h-3.5c0-1.1.3-2.1.8-3 .5-.8 1.2-1.5 2.2-2s2-.7 3.2-.7c1.2 0 2.3.2 3.3.7.9.4 1.7 1 2.2 1.8.5.8.8 1.7.8 2.7 0 .7-.1 1.3-.4 2-.3.6-.7 1.4-1.4 2.1-.7.8-1.6 1.7-2.8 2.8l-2.5 2.5v.1h7.3v3c-.1.3-12.5.3-12.5.3zm20.3-2.7V55.1h3.1v12.1h-3.1zm-4.5-4.5v-3.1h12.1v3l-12.1.1z"></path></svg>