<svg xmlns="http://www.w3.org/2000/svg" viewBox="0 0 110 110" class="css-11hrkin"><path fill="none" stroke="currentColor" stroke-width="3" stroke-linecap="round" stroke-linejoin="round" stroke-miterlimit="10" d="M94.4 33.3H15.5V97h78.9V33.3z"></path><path fill="currentColor" stroke="currentColor" stroke-width="3" stroke-linecap="round" stroke-linejoin="round" stroke-miterlimit="10" d="M94.4 19.1H15.5v14.2h78.9V19.1z"></path><path fill="#FFF" d="M24.3 29.9c1.9 0 3.5-1.6 3.5-3.5s-1.6-3.5-3.5-3.5-3.5 1.6-3.5 3.5 1.6 3.5 3.5 3.5zm61.1 0c1.9 0 3.5-1.6 3.5-3.5s-1.6-3.5-3.5-3.5-3.5 1.6-3.5 3.5 1.6 3.5 3.5 3.5z"></path><path fill="none" stroke="currentColor" stroke-width="3" stroke-linecap="round" stroke-linejoin="round" stroke-miterlimit="10" d="M85.5 13.5v12.9M24.3 13.5v12.9"></path><path fill="currentColor" d="M35.9 70.1c-.9 0-1.8-.2-2.6-.5s-1.6-.8-2.2-1.4c-.7-.7-1.2-1.5-1.6-2.6-.4-1.1-.6-2.4-.6-4 0-1.5.2-2.8.5-4 .3-1.2.8-2.2 1.4-3 .6-.8 1.4-1.4 2.2-1.8.9-.4 1.8-.6 2.9-.6 1.2 0 2.2.2 3.1.7.9.4 1.6 1.1 2.1 1.8.5.8.9 1.7 1 2.6h-3.6c-.1-.6-.4-1.1-.9-1.5-.5-.4-1-.5-1.7-.5-1.1 0-2 .5-2.6 1.5-.6 1-.9 2.3-.9 4.1h.1c.3-.5.6-1 1.1-1.3.5-.4 1-.7 1.5-.8.6-.2 1.2-.3 1.8-.3 1 0 2 .2 2.8.7.8.5 1.5 1.2 1.9 2 .5.8.7 1.8.7 2.9 0 1.2-.3 2.2-.8 3.2-.5.9-1.3 1.7-2.3 2.2-.8.3-2 .6-3.3.6zm0-2.9c1.1 0 2.1-.6 2.6-1.5.3-.5.4-1 .4-1.6 0-.6-.1-1.1-.4-1.6-.5-.9-1.5-1.5-2.6-1.5-.4 0-.8.1-1.2.2-.4.2-.7.4-.9.7-.6.6-.9 1.4-.9 2.2 0 1.1.5 2.1 1.4 2.7.5.3 1 .4 1.6.4zm17.4-7.5v2.9h-8v-2.9h8zm10.6-7.3v17.5h-3.7v-14h-.1l-4 2.5v-3.3l4.3-2.7h3.5zm4.2 17.5v-2.7l6.2-5.8c.5-.5 1-1 1.3-1.4.4-.4.6-.8.8-1.2.2-.4.3-.8.3-1.3s-.1-1-.3-1.3c-.2-.4-.6-.7-1-.9-.4-.2-.9-.3-1.4-.3-.5 0-1 .1-1.4.3-.4.2-.7.5-.9.9-.2.4-.3.9-.3 1.4h-3.5c0-1.1.3-2.1.8-3 .5-.8 1.2-1.5 2.2-2 .9-.5 2-.7 3.2-.7 1.2 0 2.3.2 3.3.7.9.4 1.7 1 2.2 1.8.5.8.8 1.7.8 2.7 0 .7-.1 1.3-.4 2-.3.6-.7 1.4-1.4 2.1-.7.8-1.6 1.7-2.8 2.8l-2.5 2.5v.1h7.3v3l-12.5.3z"></path></svg>