<svg viewBox="0 0 42 42" xmlns="http://www.w3.org/2000/svg" class="css-11hrkin"><path fill-rule="evenodd" clip-rule="evenodd" d="M1.52728 37.5327C1.52728 37.2164 1.7837 36.96 2.10001 36.96H40.2818C40.5981 36.96 40.8546 37.2164 40.8546 37.5327C40.8546 37.849 40.5981 38.1054 40.2818 38.1054H2.10001C1.7837 38.1054 1.52728 37.849 1.52728 37.5327Z"></path><path fill-rule="evenodd" clip-rule="evenodd" d="M5.65104 10.2709H36.731V13.0582C36.731 13.8492 36.1093 14.4709 35.3183 14.4709C34.5274 14.4709 33.9056 13.8492 33.9056 13.0582C33.9056 12.7419 33.6492 12.4855 33.3329 12.4855H32.6074C32.2911 12.4855 32.0347 12.7419 32.0347 13.0582C32.0347 13.8492 31.4129 14.4709 30.622 14.4709C29.831 14.4709 29.2092 13.8492 29.2092 13.0582C29.2092 12.7419 28.9528 12.4855 28.6365 12.4855H27.8729C27.5566 12.4855 27.3001 12.7419 27.3001 13.0582C27.3001 13.8492 26.6784 14.4709 25.8874 14.4709C25.0964 14.4709 24.4747 13.8492 24.4747 13.0582C24.4747 12.7419 24.2183 12.4855 23.902 12.4855H23.1765C22.8602 12.4855 22.6038 12.7419 22.6038 13.0582C22.6038 13.8492 21.982 14.4709 21.191 14.4709C20.4001 14.4709 19.7783 13.8492 19.7783 13.0582C19.7783 12.7419 19.5219 12.4855 19.2056 12.4855H18.4801C18.1638 12.4855 17.9074 12.7419 17.9074 13.0582C17.9074 13.8492 17.2856 14.4709 16.4947 14.4709C15.7037 14.4709 15.082 13.8492 15.082 13.0582C15.082 12.7419 14.8255 12.4855 14.5092 12.4855H13.7456C13.4293 12.4855 13.1729 12.7419 13.1729 13.0582C13.1729 13.8492 12.5511 14.4709 11.7601 14.4709C10.9692 14.4709 10.3474 13.8492 10.3474 13.0582C10.3474 12.7419 10.091 12.4855 9.77468 12.4855H9.04922C8.73291 12.4855 8.47649 12.7419 8.47649 13.0582C8.47649 13.8492 7.85473 14.4709 7.06377 14.4709C6.2728 14.4709 5.65104 13.8492 5.65104 13.0582V10.2709ZM4.50558 9.69822C4.50558 9.38191 4.762 9.12549 5.07831 9.12549H37.3038C37.6201 9.12549 37.8765 9.38191 37.8765 9.69822V13.0582C37.8765 14.4818 36.7419 15.6164 35.3183 15.6164C34.2602 15.6164 33.3617 14.9895 32.9701 14.0831C32.5786 14.9895 31.6801 15.6164 30.622 15.6164C29.5462 15.6164 28.6355 14.9685 28.2547 14.0377C27.8738 14.9685 26.9631 15.6164 25.8874 15.6164C24.8293 15.6164 23.9308 14.9895 23.5392 14.0831C23.1477 14.9895 22.2492 15.6164 21.191 15.6164C20.1329 15.6164 19.2344 14.9895 18.8429 14.0831C18.4513 14.9895 17.5528 15.6164 16.4947 15.6164C15.419 15.6164 14.5083 14.9685 14.1274 14.0377C13.7466 14.9685 12.8358 15.6164 11.7601 15.6164C10.702 15.6164 9.80351 14.9895 9.41195 14.0831C9.02039 14.9895 8.12191 15.6164 7.06377 15.6164C5.64019 15.6164 4.50558 14.4818 4.50558 13.0582V9.69822Z"></path><path d="M37.3038 9.69814H5.07831L8.93467 4.39087H33.4474L37.3038 9.69814Z"></path><path fill-rule="evenodd" clip-rule="evenodd" d="M8.47135 4.05418C8.57911 3.90587 8.75135 3.81812 8.93468 3.81812H33.4474C33.6307 3.81812 33.803 3.90587 33.9107 4.05418L37.7671 9.36145C37.8937 9.53568 37.9118 9.76621 37.8141 9.95811C37.7163 10.15 37.5191 10.2708 37.3038 10.2708H5.07831C4.86294 10.2708 4.66578 10.15 4.568 9.95811C4.47023 9.76621 4.48838 9.53568 4.61499 9.36145L8.47135 4.05418ZM9.22648 4.96357L6.20242 9.12539H36.1797L33.1556 4.96357H9.22648Z"></path><path fill-rule="evenodd" clip-rule="evenodd" d="M6.83493 16.189C7.15124 16.189 7.40766 16.4454 7.40766 16.7617V34.1726H35.0895V16.7617C35.0895 16.4454 35.3459 16.189 35.6622 16.189C35.9785 16.189 36.2349 16.4454 36.2349 16.7617V34.7453C36.2349 35.0616 35.9785 35.3181 35.6622 35.3181H6.83493C6.51863 35.3181 6.26221 35.0616 6.26221 34.7453V16.7617C6.26221 16.4454 6.51863 16.189 6.83493 16.189Z"></path><path d="M32.989 18.4036H20.5035V28.2545H32.989V18.4036Z"></path><path fill-rule="evenodd" clip-rule="evenodd" d="M19.9308 18.4035C19.9308 18.0872 20.1872 17.8308 20.5035 17.8308H32.989C33.3053 17.8308 33.5617 18.0872 33.5617 18.4035V28.2544C33.5617 28.5708 33.3053 28.8272 32.989 28.8272H20.5035C20.1872 28.8272 19.9308 28.5708 19.9308 28.2544V18.4035ZM21.0763 18.9763V27.6817H32.4163V18.9763H21.0763Z"></path><path fill-rule="evenodd" clip-rule="evenodd" d="M20.0454 21.3818C20.0454 21.0655 20.3018 20.8091 20.6181 20.8091L32.8363 20.8091C33.1526 20.8091 33.4091 21.0655 33.4091 21.3818C33.4091 21.6981 33.1526 21.9545 32.8363 21.9545L20.6181 21.9545C20.3018 21.9545 20.0454 21.6981 20.0454 21.3818Z" fill="white"></path><path fill-rule="evenodd" clip-rule="evenodd" d="M26.1546 28.0636L26.1546 21.3818C26.1546 21.0655 26.411 20.8091 26.7273 20.8091C27.0436 20.8091 27.3 21.0655 27.3 21.3818L27.3 28.0636C27.3 28.3799 27.0436 28.6364 26.7273 28.6364C26.411 28.6364 26.1546 28.3799 26.1546 28.0636Z" fill="white"></path><path fill-rule="evenodd" clip-rule="evenodd" d="M9.2399 18.4035C9.2399 18.0872 9.49632 17.8308 9.81263 17.8308H17.6781C17.9944 17.8308 18.2508 18.0872 18.2508 18.4035V34.6308C18.2508 34.9471 17.9944 35.2035 17.6781 35.2035H9.81263C9.49632 35.2035 9.2399 34.9471 9.2399 34.6308V18.4035ZM10.3854 18.9763V34.0581H17.1054V18.9763H10.3854Z"></path><path fill-rule="evenodd" clip-rule="evenodd" d="M15.9217 24.6272C16.238 24.6272 16.4945 24.8836 16.4945 25.1999V28.0636C16.4945 28.3799 16.238 28.6363 15.9217 28.6363C15.6054 28.6363 15.349 28.3799 15.349 28.0636V25.1999C15.349 24.8836 15.6054 24.6272 15.9217 24.6272Z"></path></svg>