<svg viewBox="0 0 42 42" xmlns="http://www.w3.org/2000/svg" class="css-11hrkin"><path fill-rule="evenodd" clip-rule="evenodd" d="M1.33594 37.8C1.33594 37.4837 1.59236 37.2273 1.90866 37.2273H40.0905C40.4068 37.2273 40.6632 37.4837 40.6632 37.8C40.6632 38.1163 40.4068 38.3727 40.0905 38.3727H1.90866C1.59236 38.3727 1.33594 38.1163 1.33594 37.8Z"></path><path fill-rule="evenodd" clip-rule="evenodd" d="M29.3613 5.15451C29.3613 4.83821 29.6177 4.58179 29.9341 4.58179H35.2795C35.5958 4.58179 35.8522 4.83821 35.8522 5.15451V13.2872C35.8522 13.6035 35.5958 13.86 35.2795 13.86C34.9632 13.86 34.7068 13.6035 34.7068 13.2872V5.72724H29.9341C29.6177 5.72724 29.3613 5.47082 29.3613 5.15451Z"></path><path fill-rule="evenodd" clip-rule="evenodd" d="M35.2795 29.4001C35.5958 29.4001 35.8522 29.6566 35.8522 29.9729V33.142C35.8522 33.4583 35.5958 33.7147 35.2795 33.7147H29.9341C29.6177 33.7147 29.3613 33.4583 29.3613 33.142C29.3613 32.8257 29.6177 32.5692 29.9341 32.5692H34.7068V29.9729C34.7068 29.6566 34.9632 29.4001 35.2795 29.4001Z"></path><path fill-rule="evenodd" clip-rule="evenodd" d="M6.2998 1.71824C6.2998 1.40193 6.55622 1.14551 6.87253 1.14551H30.0107C30.327 1.14551 30.5834 1.40193 30.5834 1.71824V11.5691C30.5834 11.8855 30.327 12.1419 30.0107 12.1419C29.6944 12.1419 29.438 11.8855 29.438 11.5691V2.29096H7.44526V32.5691H29.438V28.8273C29.438 28.511 29.6944 28.2546 30.0107 28.2546C30.327 28.2546 30.5834 28.511 30.5834 28.8273V33.1419C30.5834 33.4582 30.327 33.7146 30.0107 33.7146H6.87253C6.55622 33.7146 6.2998 33.4582 6.2998 33.1419V1.71824Z"></path><path fill-rule="evenodd" clip-rule="evenodd" d="M21.916 20.1983C21.916 16.1496 25.1982 12.8674 29.2469 12.8674C33.2957 12.8674 36.5778 16.1496 36.5778 20.1983C36.5778 24.2471 33.2957 27.5292 29.2469 27.5292C25.1982 27.5292 21.916 24.2471 21.916 20.1983ZM29.2469 14.0129C25.8308 14.0129 23.0615 16.7822 23.0615 20.1983C23.0615 23.6145 25.8308 26.3838 29.2469 26.3838C32.6631 26.3838 35.4324 23.6145 35.4324 20.1983C35.4324 16.7822 32.6631 14.0129 29.2469 14.0129Z"></path><path d="M30.7367 17.2583C30.393 16.9147 29.973 16.762 29.4003 16.762C28.8658 16.762 28.4076 16.9147 28.0258 17.2583C27.6821 17.5638 27.4912 18.022 27.4912 18.5565H28.0639C28.0639 18.1747 28.1785 17.8692 28.4458 17.6401C28.6748 17.4111 29.0185 17.2965 29.4003 17.2965C29.7821 17.2965 30.0876 17.4111 30.3167 17.6401C30.5458 17.8692 30.6603 18.2129 30.6603 18.5947C30.6603 18.7856 30.6221 18.9765 30.5839 19.1292C30.5458 19.282 30.4694 19.4347 30.3548 19.5492C30.2785 19.6638 30.0494 19.8929 29.7439 20.2365C29.4003 20.542 29.2094 20.8474 29.0948 21.0765C28.9803 21.3056 28.9421 21.6111 28.9421 22.0311H29.5148C29.5148 21.4201 29.7058 21.0001 30.0876 20.6565C30.5458 20.2365 30.8512 19.8929 31.0039 19.5874C31.1567 19.282 31.233 18.9383 31.233 18.5947C31.233 18.0601 31.0803 17.602 30.7367 17.2583Z"></path><path fill-rule="evenodd" clip-rule="evenodd" d="M27.7702 16.9737C28.2321 16.5584 28.7855 16.3801 29.3993 16.3801C30.051 16.3801 30.576 16.5587 31.0057 16.9883C31.4377 17.4204 31.6139 17.9854 31.6139 18.5947C31.6139 18.9938 31.5253 19.3964 31.3445 19.7582C31.1582 20.1306 30.807 20.514 30.3446 20.9379L30.342 20.9403L30.342 20.9403C30.0474 21.2054 29.8957 21.5189 29.8957 22.031C29.8957 22.2419 29.7247 22.4129 29.5139 22.4129H28.9411C28.7303 22.4129 28.5593 22.2419 28.5593 22.031C28.5593 21.6017 28.5955 21.2193 28.7523 20.9057C28.8815 20.6474 29.0951 20.306 29.4722 19.9664C29.5856 19.8391 29.6892 19.7267 29.7759 19.6326C29.8033 19.6028 29.829 19.5749 29.8528 19.5489C29.9652 19.4264 30.018 19.3647 30.0362 19.3374C30.0501 19.3165 30.0661 19.297 30.0839 19.2792C30.1405 19.2226 30.1877 19.1357 30.2125 19.0366C30.248 18.8948 30.2775 18.7393 30.2775 18.5947C30.2775 18.2828 30.1837 18.0481 30.0457 17.9101C29.9009 17.7653 29.6993 17.6783 29.3993 17.6783C29.0874 17.6783 28.8528 17.7721 28.7147 17.9101C28.7078 17.917 28.7007 17.9237 28.6932 17.93C28.5289 18.0709 28.4448 18.2596 28.4448 18.5565C28.4448 18.7674 28.2738 18.9383 28.0629 18.9383H27.4902C27.2793 18.9383 27.1084 18.7674 27.1084 18.5565C27.1084 17.9308 27.3334 17.3625 27.7702 16.9737Z"></path><path d="M29.2471 23.291C29.1326 23.291 29.0181 23.3292 28.9417 23.4056C28.8653 23.4819 28.8271 23.5965 28.8271 23.6728C28.8271 23.7874 28.8653 23.8637 28.9417 23.9401C29.0181 24.0165 29.0944 24.0547 29.2471 24.0547C29.3617 24.0547 29.4762 24.0165 29.5526 23.9401C29.629 23.8637 29.6671 23.7874 29.6671 23.6728C29.6671 23.5583 29.629 23.4819 29.5526 23.4056C29.4762 23.3292 29.3617 23.291 29.2471 23.291Z"></path><path fill-rule="evenodd" clip-rule="evenodd" d="M28.6717 23.1356C28.8359 22.9714 29.0568 22.9092 29.2471 22.9092C29.4375 22.9092 29.6584 22.9714 29.8226 23.1356C29.8833 23.1963 29.944 23.2722 29.9874 23.3698C30.0315 23.4691 30.0489 23.571 30.0489 23.6728C30.0489 23.7746 30.0315 23.8766 29.9874 23.9758C29.944 24.0735 29.8833 24.1494 29.8226 24.2101C29.6584 24.3743 29.4375 24.4365 29.2471 24.4365C29.1399 24.4365 29.0308 24.4232 28.924 24.3805C28.8141 24.3366 28.7339 24.2723 28.6717 24.2101C28.611 24.1494 28.5502 24.0735 28.5069 23.9758C28.4627 23.8766 28.4453 23.7746 28.4453 23.6728C28.4453 23.502 28.519 23.2882 28.6717 23.1356ZM29.2029 23.6699C29.2026 23.6698 29.2025 23.6698 29.2025 23.6698C29.2025 23.6698 29.2027 23.6698 29.2029 23.6699Z"></path><path fill-rule="evenodd" clip-rule="evenodd" d="M33.8233 25.1563C34.1215 24.8581 34.605 24.8581 34.9032 25.1563L39.7141 29.9672C40.0123 30.2654 40.0123 30.7489 39.7141 31.0471C39.4159 31.3454 38.9324 31.3454 38.6342 31.0471L33.8233 26.2362C33.5251 25.938 33.5251 25.4545 33.8233 25.1563Z"></path><path fill-rule="evenodd" clip-rule="evenodd" d="M9.62109 6.1091C9.62109 5.68735 9.96299 5.34546 10.3847 5.34546H25.3902C25.8119 5.34546 26.1538 5.68735 26.1538 6.1091C26.1538 6.53084 25.8119 6.87273 25.3902 6.87273H10.3847C9.96299 6.87273 9.62109 6.53084 9.62109 6.1091Z"></path><path fill-rule="evenodd" clip-rule="evenodd" d="M9.62109 9.92746C9.62109 9.50571 9.96299 9.16382 10.3847 9.16382H25.3902C25.8119 9.16382 26.1538 9.50571 26.1538 9.92746C26.1538 10.3492 25.8119 10.6911 25.3902 10.6911H10.3847C9.96299 10.6911 9.62109 10.3492 9.62109 9.92746Z"></path><path fill-rule="evenodd" clip-rule="evenodd" d="M9.62109 13.7456C9.62109 13.3238 9.96299 12.9819 10.3847 12.9819H22.5647C22.9865 12.9819 23.3284 13.3238 23.3284 13.7456C23.3284 14.1673 22.9865 14.5092 22.5647 14.5092H10.3847C9.96299 14.5092 9.62109 14.1673 9.62109 13.7456Z"></path><path fill-rule="evenodd" clip-rule="evenodd" d="M9.62109 17.5637C9.62109 17.1419 9.96299 16.8 10.3847 16.8H19.7775C20.1992 16.8 20.5411 17.1419 20.5411 17.5637C20.5411 17.9854 20.1992 18.3273 19.7775 18.3273H10.3847C9.96299 18.3273 9.62109 17.9854 9.62109 17.5637Z"></path><path fill-rule="evenodd" clip-rule="evenodd" d="M9.62109 21.3818C9.62109 20.9601 9.96299 20.6182 10.3847 20.6182H19.5484C19.9701 20.6182 20.312 20.9601 20.312 21.3818C20.312 21.8036 19.9701 22.1454 19.5484 22.1454H10.3847C9.96299 22.1454 9.62109 21.8036 9.62109 21.3818Z"></path><path fill-rule="evenodd" clip-rule="evenodd" d="M9.62109 25.2002C9.62109 24.7784 9.96299 24.4365 10.3847 24.4365H21.1902C21.6119 24.4365 21.9538 24.7784 21.9538 25.2002C21.9538 25.6219 21.6119 25.9638 21.1902 25.9638H10.3847C9.96299 25.9638 9.62109 25.6219 9.62109 25.2002Z"></path><path fill-rule="evenodd" clip-rule="evenodd" d="M9.62109 29.0183C9.62109 28.5965 9.96299 28.2546 10.3847 28.2546H25.3902C25.8119 28.2546 26.1538 28.5965 26.1538 29.0183C26.1538 29.44 25.8119 29.7819 25.3902 29.7819H10.3847C9.96299 29.7819 9.62109 29.44 9.62109 29.0183Z"></path></svg>