<svg viewBox="0 0 42 42" xmlns="http://www.w3.org/2000/svg" class="css-11hrkin"><path fill-rule="evenodd" clip-rule="evenodd" d="M1.52734 37.7619C1.52734 37.4456 1.78376 37.1892 2.10007 37.1892H40.2819C40.5982 37.1892 40.8546 37.4456 40.8546 37.7619C40.8546 38.0782 40.5982 38.3347 40.2819 38.3347H2.10007C1.78376 38.3347 1.52734 38.0782 1.52734 37.7619Z"></path><path d="M12.6758 13.3638L13.8977 16.8383L17.6013 16.9147L14.6613 19.1674L15.7304 22.6801L12.6758 20.5801L9.65948 22.6801L10.7286 19.1674L7.78857 16.9147L11.454 16.8383L12.6758 13.3638Z"></path><path fill-rule="evenodd" clip-rule="evenodd" d="M12.6763 12.791C12.9194 12.791 13.136 12.9444 13.2166 13.1737L14.3068 16.2739L17.6136 16.342C17.8568 16.3471 18.0703 16.5052 18.1461 16.7363C18.2218 16.9675 18.1432 17.2213 17.9501 17.3693L15.3253 19.3805L16.2788 22.5134C16.3497 22.7462 16.2656 22.9984 16.0692 23.1422C15.8728 23.286 15.607 23.29 15.4064 23.1521L12.6784 21.2765L9.98722 23.1501C9.78695 23.2896 9.52033 23.2868 9.32301 23.1432C9.12569 22.9996 9.04102 22.7468 9.11207 22.5134L10.0655 19.3805L7.44073 17.3693C7.24765 17.2213 7.16908 16.9676 7.24479 16.7364C7.32049 16.5052 7.53395 16.3471 7.77714 16.342L11.0459 16.274L12.136 13.1737C12.2167 12.9444 12.4333 12.791 12.6763 12.791ZM12.6763 15.0902L11.9948 17.0283C11.9156 17.2535 11.7051 17.4059 11.4665 17.4109L9.43363 17.4532L11.0774 18.7128C11.267 18.858 11.3465 19.1057 11.277 19.3341L10.6891 21.2658L12.3491 20.1101C12.5448 19.9739 12.8044 19.9731 13.0008 20.1082L14.7063 21.2807L14.1139 19.3341C14.0444 19.1057 14.1239 18.858 14.3135 18.7128L15.9568 17.4536L13.8864 17.4109C13.6477 17.406 13.4371 17.2535 13.3579 17.0283L12.6763 15.0902Z"></path><path d="M29.7052 13.1729L30.9271 16.6474L34.5925 16.7238L31.6525 18.9765L32.7216 22.5274L29.7052 20.3892L26.6507 22.5274L27.7198 18.9765L24.7798 16.7238L28.4834 16.6474L29.7052 13.1729Z"></path><path fill-rule="evenodd" clip-rule="evenodd" d="M29.7052 12.6001C29.9483 12.6001 30.1649 12.7535 30.2455 12.9828L31.3357 16.083L34.6044 16.1511C34.8476 16.1562 35.0611 16.3143 35.1368 16.5455C35.2125 16.7766 35.1339 17.0304 34.9409 17.1783L32.315 19.1903L33.27 22.3623C33.3405 22.5965 33.2545 22.8496 33.0559 22.9924C32.8573 23.1352 32.59 23.1361 32.3904 22.9946L29.7032 21.0897L26.9791 22.9966C26.7793 23.1365 26.5127 23.1344 26.315 22.9914C26.1173 22.8484 26.032 22.5959 26.1023 22.3623L27.0573 19.1903L24.4315 17.1783C24.2384 17.0304 24.1598 16.7766 24.2355 16.5454C24.3113 16.3143 24.5248 16.1561 24.768 16.1511L28.0748 16.0829L29.165 12.9828C29.2456 12.7535 29.4622 12.6001 29.7052 12.6001ZM29.7052 14.8993L29.0237 16.8374C28.9445 17.0626 28.7339 17.2151 28.4952 17.22L26.4248 17.2627L28.0681 18.5218C28.2572 18.6667 28.3369 18.9135 28.2682 19.1416L27.6752 21.1111L29.3768 19.92C29.575 19.7812 29.8391 19.782 30.0365 19.9219L31.6925 21.0958L31.1041 19.1416C31.0354 18.9135 31.1151 18.6667 31.3042 18.5218L32.948 17.2623L30.9151 17.22C30.6765 17.215 30.466 17.0625 30.3868 16.8374L29.7052 14.8993Z"></path></svg>