<svg xmlns="http://www.w3.org/2000/svg" viewBox="0 0 110 110" class="css-11hrkin"><path fill="none" stroke="currentColor" stroke-width="3" stroke-linecap="round" stroke-linejoin="round" stroke-miterlimit="10" d="M99.7 40.8H9.1v49.7h90.6V40.8z"></path><path fill="currentColor" d="M15.7 15.5L4.6 37.8l-.1 2.9h26v-6.2l24.9-19 23.6 19v6.2h27.4l-.2-2.9-11.1-22.3H15.7z"></path><path fill="none" stroke="currentColor" stroke-width="3" stroke-linecap="round" stroke-linejoin="round" stroke-miterlimit="10" d="M55.4 15.5l23.6 19v6.2h27.4l-.2-2.9-11.1-22.3H55.4zm0 0l-24.9 19v6.2h-26l.1-2.9 11.1-22.3h39.7z"></path><path fill="none" stroke="currentColor" stroke-width="3" stroke-linecap="round" stroke-linejoin="round" stroke-miterlimit="10" d="M29.8 39.5v-5.7l24.6-18L79 33.4v6.1m-19.5 9.4h-8.8v11h8.8v-11z"></path><path fill="none" stroke="currentColor" stroke-width="3" stroke-linecap="round" stroke-linejoin="round" stroke-miterlimit="10" d="M59.5 26.9h-8.8v8h8.8v-8zm16 22h-8.8v11h8.8v-11zm-16 18.9h-8.8v11h8.8v-11zm16 0h-8.8v11h8.8v-11zm16-18.9h-8.8v11h8.8v-11zm0 18.9h-8.8v11h8.8v-11zM26.1 48.9h-8.8v11h8.8v-11zm17 0h-8.8v11h8.8v-11zm-17 18.9h-8.8v11h8.8v-11zm17 0h-8.8v11h8.8v-11zM5.5 99h100"></path></svg>