<svg viewBox="0 0 42 42" xmlns="http://www.w3.org/2000/svg" class="css-11hrkin"><path fill-rule="evenodd" clip-rule="evenodd" d="M29.5525 18.8999C29.8688 18.8999 30.1252 19.1563 30.1252 19.4726V34.5544C30.1252 34.8708 29.8688 35.1272 29.5525 35.1272C29.2362 35.1272 28.9797 34.8708 28.9797 34.5544V19.4726C28.9797 19.1563 29.2362 18.8999 29.5525 18.8999Z"></path><path fill-rule="evenodd" clip-rule="evenodd" d="M20.7318 8.51549C22.7442 5.8189 26.004 4.04712 29.629 4.04712C35.749 4.04712 40.6636 8.96172 40.6636 15.0817C40.6636 21.2016 35.7108 26.1544 29.5908 26.1544C28.2238 26.1544 26.9353 25.9129 25.7282 25.4703C25.4312 25.3614 25.2788 25.0324 25.3877 24.7354C25.4966 24.4384 25.8256 24.286 26.1225 24.3949C27.2064 24.7923 28.3615 25.0089 29.5908 25.0089C35.0782 25.0089 39.5181 20.569 39.5181 15.0817C39.5181 9.59434 35.1163 5.19257 29.629 5.19257C26.3813 5.19257 23.4556 6.78079 21.6498 9.20057C21.4607 9.45407 21.1018 9.50621 20.8483 9.31703C20.5948 9.12785 20.5427 8.76899 20.7318 8.51549Z"></path><path d="M25.5821 28.7508L18.8621 20.5799H23.4057L16.4948 11.8363H20.6184L14.433 3.24536L8.24751 11.8363H12.3711L5.46024 20.5799H10.0039L3.28387 28.7508H25.5821Z"></path><path fill-rule="evenodd" clip-rule="evenodd" d="M14.4329 2.67261C14.6171 2.67261 14.7901 2.7612 14.8977 2.91069L21.0832 11.5016C21.2088 11.676 21.2261 11.9061 21.1281 12.0974C21.0302 12.2886 20.8333 12.409 20.6184 12.409H17.6775L23.855 20.2247C23.9911 20.397 24.0168 20.6319 23.9211 20.8295C23.8254 21.0271 23.6252 21.1526 23.4057 21.1526H20.0746L26.0244 28.387C26.1651 28.5581 26.1945 28.7951 26.0999 28.9954C26.0053 29.1957 25.8036 29.3235 25.582 29.3235H3.28385C3.0623 29.3235 2.86061 29.1957 2.76599 28.9954C2.67136 28.7951 2.70078 28.5581 2.84151 28.387L8.79128 21.1526H5.46022C5.24067 21.1526 5.04044 21.0271 4.94475 20.8295C4.84906 20.6319 4.87475 20.397 5.0109 20.2247L11.1884 12.409H8.24749C8.03257 12.409 7.83573 12.2886 7.73775 12.0974C7.63976 11.9061 7.65712 11.676 7.7827 11.5016L13.9682 2.91069C14.0758 2.7612 14.2487 2.67261 14.4329 2.67261ZM14.4329 4.22552L9.36559 11.2635H12.3711C12.5907 11.2635 12.7909 11.389 12.8866 11.5866C12.9823 11.7842 12.9566 12.0191 12.8204 12.1914L6.64292 20.0072H10.0039C10.2254 20.0072 10.4271 20.1349 10.5217 20.3353C10.6163 20.5356 10.5869 20.7726 10.4462 20.9437L4.49642 28.1781H24.3695L18.4197 20.9437C18.279 20.7726 18.2495 20.5356 18.3442 20.3353C18.4388 20.1349 18.6405 20.0072 18.862 20.0072H22.223L16.0454 12.1914C15.9093 12.0191 15.8836 11.7842 15.9793 11.5866C16.075 11.389 16.2752 11.2635 16.4948 11.2635H19.5003L14.4329 4.22552Z"></path><path fill-rule="evenodd" clip-rule="evenodd" d="M14.4328 28.8652C14.7491 28.8652 15.0056 29.1217 15.0056 29.438V34.3634C15.0056 34.6797 14.7491 34.9361 14.4328 34.9361C14.1165 34.9361 13.8601 34.6797 13.8601 34.3634V29.438C13.8601 29.1217 14.1165 28.8652 14.4328 28.8652Z"></path><path fill-rule="evenodd" clip-rule="evenodd" d="M1.14545 37.5708C1.14545 37.2545 1.40187 36.998 1.71817 36.998H39.9C40.2163 36.998 40.4727 37.2545 40.4727 37.5708C40.4727 37.8871 40.2163 38.1435 39.9 38.1435H1.71817C1.40187 38.1435 1.14545 37.8871 1.14545 37.5708Z"></path></svg>