<svg viewBox="0 0 24 24" fill="none" xmlns="http://www.w3.org/2000/svg" class="css-omqwjg"><path d="M1.5 0.352273C1.5 0.157718 1.66085 0 1.85927 0H11.9551C12.0486 0 12.1384 0.0357199 12.2055 0.0995768L17.6757 5.30927C17.7454 5.37561 17.7847 5.46676 17.7847 5.56197V10.0505C17.7847 10.2451 17.6238 10.4028 17.4254 10.4028C17.227 10.4028 17.0661 10.2451 17.0661 10.0505V5.82264C17.0541 5.82385 17.0418 5.82446 17.0294 5.82446H11.8407C11.6423 5.82446 11.4814 5.66675 11.4814 5.47219V0.704546H2.21854V20.8088H8.85181C9.05023 20.8088 9.21108 20.9665 9.21108 21.1611C9.21108 21.3557 9.05023 21.5134 8.85181 21.5134H1.85927C1.66085 21.5134 1.5 21.3557 1.5 21.1611V0.352273ZM12.2 1.07654L16.4456 5.11992H12.2V1.07654ZM6.95205 2.15243C7.07766 2.06342 7.24732 2.06342 7.37293 2.15243L9.02823 3.32543L9.15793 3.41757L9.94411 3.97479C9.9518 3.98024 9.95924 3.98597 9.96641 3.99195L10.6839 4.50167C10.8446 4.61583 10.8805 4.83608 10.764 4.99363C10.6476 5.15118 10.423 5.18636 10.2623 5.0722L10.0929 4.95186V7.99474C10.0929 8.1893 9.93206 8.34701 9.73364 8.34701H7.87145C7.86924 8.34705 7.86703 8.34707 7.86481 8.34707H6.50034C6.49812 8.34707 6.4959 8.34705 6.49369 8.34701H4.59134C4.39292 8.34701 4.23207 8.1893 4.23207 7.99474V4.95184L4.06264 5.0722C3.90196 5.18636 3.67733 5.15118 3.56091 4.99363C3.44449 4.83608 3.48037 4.61583 3.64105 4.50167L6.95205 2.15243ZM4.95061 4.44313V7.64247H6.14107V5.88875C6.13929 5.77178 6.18374 5.65915 6.26435 5.57389C6.34654 5.48695 6.4595 5.4355 6.57868 5.42876C6.58556 5.42837 6.59246 5.42818 6.59935 5.42818H7.76889C7.77582 5.42818 7.78276 5.42838 7.78968 5.42877C7.84949 5.43217 7.90833 5.44693 7.96281 5.47253C8.0172 5.4981 8.06612 5.53393 8.10664 5.57818C8.14703 5.62228 8.1785 5.6741 8.1987 5.73091C8.21717 5.78285 8.22572 5.83754 8.22408 5.89226V7.64247H9.37437V4.44138L8.73651 3.98822L7.16266 2.87273L4.95061 4.44313ZM7.50553 7.64247V6.13273H6.85961V7.64247H7.50553ZM4.1795 10.8465C4.1795 10.652 4.34035 10.4942 4.53877 10.4942H11.9428C12.1412 10.4942 12.3021 10.652 12.3021 10.8465C12.3021 11.0411 12.1412 11.1988 11.9428 11.1988H4.53877C4.34035 11.1988 4.1795 11.0411 4.1795 10.8465ZM15.7917 11.7194C12.4791 11.7194 9.80204 14.3153 9.80204 17.5074C9.80204 20.6995 12.4791 23.2955 15.7917 23.2955C19.1044 23.2955 21.7815 20.6995 21.7815 17.5074C21.7815 14.3153 19.1044 11.7194 15.7917 11.7194ZM9.0835 17.5074C9.0835 13.9171 12.0916 11.0148 15.7917 11.0148C19.4919 11.0148 22.5 13.9171 22.5 17.5074C22.5 21.0977 19.4919 24 15.7917 24C12.0916 24 9.0835 21.0977 9.0835 17.5074ZM4.1795 13.1805C4.1795 12.9859 4.34035 12.8282 4.53877 12.8282H9.16746C9.36588 12.8282 9.52673 12.9859 9.52673 13.1805C9.52673 13.375 9.36588 13.5328 9.16746 13.5328H4.53877C4.34035 13.5328 4.1795 13.375 4.1795 13.1805ZM15.6919 14.3874C16.0459 14.3696 16.3997 14.4285 16.7275 14.5602C17.0583 14.693 17.3543 14.8965 17.5931 15.1559C17.7261 15.3003 17.7145 15.523 17.5672 15.6534C17.4199 15.7838 17.1928 15.7724 17.0598 15.628C16.8935 15.4475 16.6869 15.3052 16.4552 15.2121C16.2234 15.1191 15.9728 15.0777 15.7219 15.0913C15.7153 15.0917 15.7087 15.0919 15.7021 15.0919C15.4797 15.0919 15.0761 15.1742 14.73 15.5031C14.4915 15.7298 14.2582 16.0948 14.1408 16.6824H16.0795C16.2779 16.6824 16.4388 16.8401 16.4388 17.0347C16.4388 17.2292 16.2779 17.3869 16.0795 17.3869H14.0649C14.0634 17.4398 14.0626 17.494 14.0626 17.5494C14.0626 17.6384 14.0649 17.7244 14.0694 17.8075H15.4978C15.6963 17.8075 15.8571 17.9652 15.8571 18.1598C15.8571 18.3543 15.6963 18.5121 15.4978 18.5121H14.1718C14.2693 18.8972 14.4243 19.1893 14.6045 19.4024C14.9095 19.7631 15.3069 19.9232 15.7021 19.9232C16.6195 19.9232 16.9245 19.6736 17.0656 19.5275C17.202 19.3863 17.4294 19.3802 17.5735 19.514C17.7175 19.6478 17.7237 19.8708 17.5873 20.012C17.289 20.3208 16.7834 20.6277 15.7021 20.6277C15.0979 20.6277 14.4959 20.3779 14.0513 19.8521C13.7624 19.5103 13.5489 19.0633 13.4357 18.5121H13.0257C12.8273 18.5121 12.6664 18.3543 12.6664 18.1598C12.6664 17.9652 12.8273 17.8075 13.0257 17.8075H13.35C13.346 17.7233 13.344 17.6373 13.344 17.5494C13.344 17.4944 13.3447 17.4402 13.3461 17.3869H13.0257C12.8273 17.3869 12.6664 17.2292 12.6664 17.0347C12.6664 16.8401 12.8273 16.6824 13.0257 16.6824H13.4111C13.5407 15.9034 13.8466 15.3615 14.2299 14.9972C14.73 14.5218 15.3196 14.3897 15.6919 14.3874ZM4.1795 15.5115C4.1795 15.317 4.34035 15.1593 4.53877 15.1593H8.02576C8.22418 15.1593 8.38503 15.317 8.38503 15.5115C8.38503 15.7061 8.22418 15.8638 8.02576 15.8638H4.53877C4.34035 15.8638 4.1795 15.7061 4.1795 15.5115ZM4.1795 17.8426C4.1795 17.648 4.34035 17.4903 4.53877 17.4903H7.70707C7.90549 17.4903 8.06634 17.648 8.06634 17.8426C8.06634 18.0372 7.90549 18.1949 7.70707 18.1949H4.53877C4.34035 18.1949 4.1795 18.0372 4.1795 17.8426Z" fill="white"></path></svg>