<svg xmlns="http://www.w3.org/2000/svg" viewBox="0 0 110 110" class="css-11hrkin"><path fill="none" stroke="currentColor" stroke-width="3" stroke-linecap="round" stroke-linejoin="round" stroke-miterlimit="10" d="M56 39h43v50H56.2"></path><path fill="currentColor" d="M55 14h38.9l10.9 22.1.2 2.9H55"></path><path fill="none" stroke="currentColor" stroke-width="3" stroke-linecap="round" stroke-linejoin="round" stroke-miterlimit="10" d="M55 14h38.9l10.9 22.1.2 2.9H55m16.7 8.4h-8.8v11h8.8v-11zm18 0h-8.8v11h8.8v-11zm-18 19h-8.8v11h8.8v-11zm18 0h-8.8v11h8.8v-11zM56 39.1L37.1 39l-25.1.1V89h43.8"></path><path fill="currentColor" stroke="currentColor" stroke-width="3" stroke-linecap="round" stroke-linejoin="round" stroke-miterlimit="10" d="M6 36.2l11.3-21.9L56 14v25H6v-2.8zm24.3 11.2h-8.8v11h8.8v-11zm19 0h-8.8v11h8.8v-11zm-19 19h-8.8v11h8.8v-11zm19 0h-8.8v11h8.8v-11z"></path><path fill="none" stroke="currentColor" stroke-width="3" stroke-linecap="round" stroke-linejoin="round" stroke-miterlimit="10" d="M7.1 97.6h97"></path><path fill="none" stroke="currentColor" stroke-width="3" stroke-linecap="round" stroke-linejoin="round" d="M56 45v3m0 6v3m0 6v3m0 6v3m0 6v3"></path></svg>