<svg viewBox="0 0 42 42" xmlns="http://www.w3.org/2000/svg" class="css-11hrkin"><path fill-rule="evenodd" clip-rule="evenodd" d="M1.52734 37.4565C1.52734 37.1402 1.78376 36.8838 2.10007 36.8838H40.2819C40.5982 36.8838 40.8546 37.1402 40.8546 37.4565C40.8546 37.7728 40.5982 38.0292 40.2819 38.0292H2.10007C1.78376 38.0292 1.52734 37.7728 1.52734 37.4565Z"></path><path d="M12.6763 19.2437L13.8982 22.7182L17.6018 22.7946L14.6618 25.0091L15.7309 28.56L12.6763 26.46L9.65997 28.56L10.7291 25.0091L7.78906 22.7946L11.4545 22.7182L12.6763 19.2437Z"></path><path fill-rule="evenodd" clip-rule="evenodd" d="M12.6763 18.6709C12.9194 18.6709 13.136 18.8243 13.2166 19.0536L14.3068 22.1537L17.6136 22.2219C17.8577 22.227 18.0717 22.3862 18.1468 22.6185C18.2218 22.8508 18.1414 23.1051 17.9464 23.252L15.3253 25.2263L16.2793 28.3949C16.3494 28.6276 16.2649 28.8793 16.0685 29.0226C15.8722 29.1659 15.6067 29.1697 15.4064 29.0319L12.6784 27.1564L9.98722 29.03C9.78721 29.1693 9.52098 29.1667 9.3237 29.0236C9.12643 28.8805 9.04131 28.6282 9.11157 28.3949L10.0655 25.2263L7.44449 23.252C7.2495 23.1051 7.16904 22.8508 7.24406 22.6185C7.31908 22.3862 7.53309 22.227 7.77714 22.2219L11.0459 22.1538L12.1361 19.0536C12.2167 18.8243 12.4333 18.6709 12.6763 18.6709ZM12.6763 20.9701L11.9948 22.9082C11.9156 23.1333 11.7051 23.2858 11.4665 23.2908L9.45541 23.3327L11.0737 24.5516C11.2653 24.696 11.3467 24.9445 11.2775 25.1742L10.6826 27.1502L12.3491 25.99C12.5448 25.8537 12.8044 25.853 13.0008 25.988L14.7128 27.165L14.1134 25.1742C14.0442 24.9445 14.1256 24.696 14.3172 24.5516L15.935 23.333L13.8864 23.2908C13.6477 23.2859 13.4371 23.1334 13.3579 22.9082L12.6763 20.9701Z"></path><path d="M29.7052 19.0527L30.9271 22.5273L34.5925 22.6036L31.6525 24.8564L32.7216 28.3691L29.7052 26.2691L26.6507 28.3691L27.7198 24.8564L24.7798 22.6036L28.4834 22.5273L29.7052 19.0527Z"></path><path fill-rule="evenodd" clip-rule="evenodd" d="M29.7052 18.48C29.9483 18.48 30.1649 18.6334 30.2455 18.8627L31.3357 21.9629L34.6044 22.031C34.8476 22.0361 35.0611 22.1942 35.1368 22.4254C35.2125 22.6565 35.1339 22.9103 34.9409 23.0582L32.316 25.0695L33.2695 28.2023C33.3406 28.4358 33.2559 28.6886 33.0586 28.8322C32.8613 28.9758 32.5946 28.9785 32.3944 28.8391L29.7032 26.9655L26.9752 28.841C26.7746 28.9789 26.5088 28.975 26.3124 28.8312C26.116 28.6874 26.0319 28.4352 26.1028 28.2023L27.0563 25.0695L24.4315 23.0582C24.2384 22.9103 24.1598 22.6565 24.2355 22.4253C24.3113 22.1941 24.5248 22.036 24.768 22.031L28.0748 21.9628L29.165 18.8627C29.2456 18.6334 29.4622 18.48 29.7052 18.48ZM29.7052 20.7792L29.0237 22.7172C28.9445 22.9425 28.7339 23.0949 28.4952 23.0999L26.4248 23.1425L28.0681 24.4017C28.2577 24.547 28.3372 24.7946 28.2677 25.0231L27.6753 26.9697L29.3808 25.7971C29.5772 25.6621 29.8368 25.6628 30.0325 25.799L31.6925 26.9547L31.1046 25.0231C31.0351 24.7946 31.1146 24.547 31.3042 24.4017L32.948 23.1422L30.9151 23.0999C30.6765 23.0949 30.466 22.9424 30.3868 22.7172L29.7052 20.7792Z"></path><path d="M21.5729 6.68188L22.7947 10.1564L26.4602 10.2328L23.5202 12.4855L24.5893 16.0364L21.5729 13.8982L18.5184 16.0364L19.5875 12.4855L16.6475 10.2328L20.3511 10.1564L21.5729 6.68188Z"></path><path fill-rule="evenodd" clip-rule="evenodd" d="M21.5729 6.10913C21.816 6.10913 22.0326 6.26256 22.1132 6.49186L23.2034 9.59207L26.4721 9.66016C26.7153 9.66523 26.9288 9.82335 27.0045 10.0545C27.0802 10.2857 27.0016 10.5394 26.8085 10.6874L24.1827 12.6994L25.1377 15.8713C25.2082 16.1055 25.1222 16.3587 24.9236 16.5014C24.725 16.6442 24.4576 16.6451 24.2581 16.5036L21.5708 14.5988L18.8468 16.5056C18.6469 16.6455 18.3804 16.6434 18.1827 16.5004C17.985 16.3574 17.8996 16.1049 17.97 15.8713L18.925 12.6994L16.2991 10.6874C16.106 10.5394 16.0275 10.2856 16.1032 10.0545C16.1789 9.82328 16.3925 9.66518 16.6357 9.66016L19.9425 9.59198L21.0326 6.49186C21.1133 6.26256 21.3299 6.10913 21.5729 6.10913ZM21.5729 8.40832L20.8914 10.3464C20.8122 10.5716 20.6016 10.7241 20.3629 10.729L18.2925 10.7717L19.9358 12.0309C20.1249 12.1758 20.2045 12.4225 20.1359 12.6506L19.5429 14.6201L21.2445 13.429C21.4427 13.2903 21.7067 13.2911 21.9041 13.431L23.5602 14.6049L22.9718 12.6506C22.9031 12.4225 22.9828 12.1758 23.1719 12.0309L24.8156 10.7714L22.7828 10.729C22.5442 10.724 22.3336 10.5716 22.2544 10.3464L21.5729 8.40832Z"></path></svg>