<svg viewBox="0 0 42 42" xmlns="http://www.w3.org/2000/svg" class="css-11hrkin"><path d="M5.81211 4.96362L1.5656 13.7924L1.52734 14.8909H10.5001V14.1273L20.6183 5.72726L30.7364 14.1273V14.8909H36.6089H40.4728L40.4346 13.7924L36.188 4.96362H5.81211Z"></path><path fill-rule="evenodd" clip-rule="evenodd" d="M5.29595 4.71541C5.39136 4.51706 5.59198 4.39093 5.81208 4.39093H36.188C36.4081 4.39093 36.6087 4.51706 36.7041 4.7154L40.9507 13.5442C40.9851 13.6156 41.0042 13.6934 41.007 13.7725L41.0452 14.871C41.0506 15.0263 40.9926 15.1771 40.8847 15.2888C40.7768 15.4006 40.6281 15.4637 40.4728 15.4637H30.7364C30.4201 15.4637 30.1637 15.2072 30.1637 14.8909V14.3962L20.6182 6.47167L11.0728 14.3962V14.8909C11.0728 15.2072 10.8164 15.4637 10.5 15.4637H1.52732C1.37196 15.4637 1.22327 15.4005 1.11535 15.2888C1.00743 15.1771 0.94953 15.0263 0.954937 14.871L0.993196 13.7725C0.995953 13.6933 1.01511 13.6156 1.04945 13.5442L5.29595 4.71541ZM6.17214 5.53638L2.13377 13.9324L2.12034 14.3182H9.92732V14.1273C9.92732 13.9569 10.0031 13.7954 10.1342 13.6866L19.9516 5.53638H6.17214ZM21.2849 5.53638L31.1022 13.6866C31.2333 13.7954 31.3091 13.9569 31.3091 14.1273V14.3182H39.8798L39.8664 13.9324L35.828 5.53638H21.2849Z"></path><path fill-rule="evenodd" clip-rule="evenodd" d="M20.2895 5.02035C20.5005 4.84422 20.8069 4.84286 21.0195 5.01709L31.1759 13.3407C31.3086 13.4495 31.3855 13.6121 31.3855 13.7837V17.7928C31.3855 18.1091 31.1291 18.3655 30.8128 18.3655C30.4965 18.3655 30.2401 18.1091 30.2401 17.7928V14.0548L20.6598 6.20327L11.0728 14.2044V17.7928C11.0728 18.1091 10.8164 18.3655 10.5001 18.3655C10.1838 18.3655 9.92737 18.1091 9.92737 17.7928V13.9364C9.92737 13.7666 10.0027 13.6055 10.1331 13.4967L20.2895 5.02035Z"></path><path fill-rule="evenodd" clip-rule="evenodd" d="M0.95459 37.6091C0.95459 37.2928 1.21101 37.0364 1.52732 37.0364H39.7091C40.0254 37.0364 40.2819 37.2928 40.2819 37.6091C40.2819 37.9254 40.0254 38.1818 39.7091 38.1818H1.52732C1.21101 38.1818 0.95459 37.9254 0.95459 37.6091Z"></path><path fill-rule="evenodd" clip-rule="evenodd" d="M2.86362 13.7455C3.17993 13.7455 3.43635 14.0019 3.43635 14.3182V15.2911C3.43635 15.6074 3.17993 15.8638 2.86362 15.8638C2.54731 15.8638 2.29089 15.6074 2.29089 15.2911V14.3182C2.29089 14.0019 2.54731 13.7455 2.86362 13.7455ZM39.1363 13.7455C39.4527 13.7455 39.7091 14.0019 39.7091 14.3182V15.2911C39.7091 15.6074 39.4527 15.8638 39.1363 15.8638C38.82 15.8638 38.5636 15.6074 38.5636 15.2911V14.3182C38.5636 14.0019 38.82 13.7455 39.1363 13.7455ZM2.86362 17.8317C3.17993 17.8317 3.43635 18.0881 3.43635 18.4044V20.3502C3.43635 20.6665 3.17993 20.9229 2.86362 20.9229C2.54731 20.9229 2.29089 20.6665 2.29089 20.3502V18.4044C2.29089 18.0881 2.54731 17.8317 2.86362 17.8317ZM39.1363 17.8317C39.4527 17.8317 39.7091 18.0881 39.7091 18.4044V20.3502C39.7091 20.6665 39.4527 20.9229 39.1363 20.9229C38.82 20.9229 38.5636 20.6665 38.5636 20.3502V18.4044C38.5636 18.0881 38.82 17.8317 39.1363 17.8317ZM2.86362 22.8908C3.17993 22.8908 3.43635 23.1472 3.43635 23.4635V25.4093C3.43635 25.7256 3.17993 25.982 2.86362 25.982C2.54731 25.982 2.29089 25.7256 2.29089 25.4093V23.4635C2.29089 23.1472 2.54731 22.8908 2.86362 22.8908ZM39.1363 22.8908C39.4527 22.8908 39.7091 23.1472 39.7091 23.4635V25.4093C39.7091 25.7256 39.4527 25.982 39.1363 25.982C38.82 25.982 38.5636 25.7256 38.5636 25.4093V23.4635C38.5636 23.1472 38.82 22.8908 39.1363 22.8908ZM2.86362 27.9499C3.17993 27.9499 3.43635 28.2063 3.43635 28.5226V30.4684C3.43635 30.7847 3.17993 31.0411 2.86362 31.0411C2.54731 31.0411 2.29089 30.7847 2.29089 30.4684V28.5226C2.29089 28.2063 2.54731 27.9499 2.86362 27.9499ZM39.1363 27.9499C39.4527 27.9499 39.7091 28.2063 39.7091 28.5226V30.4684C39.7091 30.7847 39.4527 31.0411 39.1363 31.0411C38.82 31.0411 38.5636 30.7847 38.5636 30.4684V28.5226C38.5636 28.2063 38.82 27.9499 39.1363 27.9499ZM2.86362 33.0089C3.17993 33.0089 3.43635 33.2654 3.43635 33.5817V33.9818H3.86012C4.17643 33.9818 4.43285 34.2383 4.43285 34.5546C4.43285 34.8709 4.17643 35.1273 3.86012 35.1273H2.86362C2.54731 35.1273 2.29089 34.8709 2.29089 34.5546V33.5817C2.29089 33.2654 2.54731 33.0089 2.86362 33.0089ZM39.1363 33.0089C39.4527 33.0089 39.7091 33.2654 39.7091 33.5817V34.5546C39.7091 34.8709 39.4527 35.1273 39.1363 35.1273H38.1398C37.8235 35.1273 37.5671 34.8709 37.5671 34.5546C37.5671 34.2383 37.8235 33.9818 38.1398 33.9818H38.5636V33.5817C38.5636 33.2654 38.82 33.0089 39.1363 33.0089ZM6.47621 34.5546C6.47621 34.2383 6.73263 33.9818 7.04894 33.9818H9.04194C9.35825 33.9818 9.61467 34.2383 9.61467 34.5546C9.61467 34.8709 9.35825 35.1273 9.04194 35.1273H7.04894C6.73263 35.1273 6.47621 34.8709 6.47621 34.5546ZM11.658 34.5546C11.658 34.2383 11.9144 33.9818 12.2308 33.9818H14.2238C14.5401 33.9818 14.7965 34.2383 14.7965 34.5546C14.7965 34.8709 14.5401 35.1273 14.2238 35.1273H12.2308C11.9144 35.1273 11.658 34.8709 11.658 34.5546ZM16.8398 34.5546C16.8398 34.2383 17.0963 33.9818 17.4126 33.9818H19.4056C19.7219 33.9818 19.9783 34.2383 19.9783 34.5546C19.9783 34.8709 19.7219 35.1273 19.4056 35.1273H17.4126C17.0963 35.1273 16.8398 34.8709 16.8398 34.5546ZM22.0217 34.5546C22.0217 34.2383 22.2781 33.9818 22.5944 33.9818H24.5874C24.9037 33.9818 25.1601 34.2383 25.1601 34.5546C25.1601 34.8709 24.9037 35.1273 24.5874 35.1273H22.5944C22.2781 35.1273 22.0217 34.8709 22.0217 34.5546ZM27.2035 34.5546C27.2035 34.2383 27.4599 33.9818 27.7762 33.9818H29.7692C30.0855 33.9818 30.3419 34.2383 30.3419 34.5546C30.3419 34.8709 30.0855 35.1273 29.7692 35.1273H27.7762C27.4599 35.1273 27.2035 34.8709 27.2035 34.5546ZM32.3853 34.5546C32.3853 34.2383 32.6417 33.9818 32.958 33.9818H34.951C35.2673 33.9818 35.5238 34.2383 35.5238 34.5546C35.5238 34.8709 35.2673 35.1273 34.951 35.1273H32.958C32.6417 35.1273 32.3853 34.8709 32.3853 34.5546Z"></path><path d="M19.5955 26.1896C19.6059 25.5684 19.6764 25.0777 19.8069 24.7175C19.9374 24.3573 20.2036 23.958 20.6056 23.5194L21.6313 22.4624C22.0698 21.9664 22.2891 21.434 22.2891 20.865C22.2891 20.3169 22.1455 19.8888 21.8584 19.5808C21.5713 19.2676 21.1537 19.111 20.6056 19.111C20.0731 19.111 19.6451 19.252 19.3214 19.5339C18.9978 19.8157 18.8359 20.1942 18.8359 20.6692H17.3873C17.3978 19.8236 17.6979 19.1424 18.2878 18.6255C18.8829 18.1035 19.6555 17.8425 20.6056 17.8425C21.5922 17.8425 22.3595 18.1087 22.9077 18.6412C23.461 19.1684 23.7377 19.894 23.7377 20.818C23.7377 21.7315 23.3148 22.632 22.4692 23.5194L21.6157 24.3651C21.2346 24.788 21.044 25.3961 21.044 26.1896H19.5955ZM19.5328 28.6718C19.5328 28.4368 19.6033 28.2411 19.7442 28.0845C19.8904 27.9227 20.1044 27.8417 20.3863 27.8417C20.6682 27.8417 20.8822 27.9227 21.0284 28.0845C21.1745 28.2411 21.2476 28.4368 21.2476 28.6718C21.2476 28.9067 21.1745 29.1024 21.0284 29.259C20.8822 29.4104 20.6682 29.4861 20.3863 29.4861C20.1044 29.4861 19.8904 29.4104 19.7442 29.259C19.6033 29.1024 19.5328 28.9067 19.5328 28.6718Z"></path></svg>