<svg viewBox="0 0 42 42" xmlns="http://www.w3.org/2000/svg" class="css-11hrkin"><path fill-rule="evenodd" clip-rule="evenodd" d="M1.52734 37.6855C1.52734 37.3692 1.78376 37.1128 2.10007 37.1128H40.2819C40.5982 37.1128 40.8546 37.3692 40.8546 37.6855C40.8546 38.0018 40.5982 38.2582 40.2819 38.2582H2.10007C1.78376 38.2582 1.52734 38.0018 1.52734 37.6855Z"></path><path d="M21.1916 13.1729L22.4134 16.6474L26.117 16.7238L23.1388 18.9765L24.2079 22.5274L21.1916 20.3892L18.1752 22.5274L19.2443 18.9765L16.2661 16.7238L19.9698 16.6474L21.1916 13.1729Z"></path><path fill-rule="evenodd" clip-rule="evenodd" d="M21.1911 12.6001C21.4342 12.6001 21.6507 12.7535 21.7314 12.9828L22.8215 16.0829L26.1284 16.1511C26.3722 16.1562 26.5861 16.3151 26.6614 16.5471C26.7366 16.7791 26.6566 17.0334 26.4621 17.1805L23.8016 19.1929L24.7559 22.3623C24.8264 22.5965 24.7404 22.8496 24.5418 22.9924C24.3432 23.1352 24.0758 23.1361 23.8762 22.9946L21.1911 21.0912L18.5059 22.9946C18.3064 23.1361 18.039 23.1352 17.8404 22.9924C17.6418 22.8496 17.5558 22.5965 17.6263 22.3623L18.5805 19.1929L15.9201 17.1805C15.7256 17.0334 15.6456 16.7791 15.7208 16.5471C15.796 16.3151 16.01 16.1562 16.2538 16.1511L19.5606 16.0829L20.6508 12.9828C20.7314 12.7535 20.948 12.6001 21.1911 12.6001ZM21.1911 14.8993L20.5096 16.8374C20.4304 17.0626 20.2198 17.2151 19.9811 17.22L17.927 17.2623L19.5893 18.5197C19.7803 18.6642 19.8613 18.9122 19.7922 19.1416L19.2038 21.0958L20.8599 19.9219C21.0583 19.7813 21.3239 19.7813 21.5223 19.9219L23.1783 21.0958L22.5899 19.1416C22.5209 18.9122 22.6018 18.6642 22.7929 18.5197L24.4551 17.2623L22.4011 17.22C22.1624 17.2151 21.9518 17.0626 21.8726 16.8374L21.1911 14.8993Z"></path></svg>