<svg xmlns="http://www.w3.org/2000/svg" viewBox="0 0 110 110" class="css-11hrkin"><path fill="none" d="M4 12h103v88.3H4z"></path><path fill="none" stroke="currentColor" stroke-width="3" stroke-linecap="round" stroke-linejoin="round" stroke-miterlimit="10" d="M5.5 98.8h100M94.2 18.4H15.3v73h78.9v-73z"></path><path fill="currentColor" stroke="currentColor" stroke-width="3" stroke-linecap="round" stroke-linejoin="round" stroke-miterlimit="10" d="M31.8 26.5h-9.5v13.1h9.5V26.5zm18.3 0h-9.5v13.1h9.5V26.5zm18.3 0h-9.5v13.1h9.5V26.5zm18.3 0h-9.5v13.1h9.5V26.5zM31.8 46.6h-9.5v13.1h9.5V46.6zm18.3 0h-9.5v13.1h9.5V46.6zm18.3 0h-9.5v13.1h9.5V46.6zm18.3 0h-9.5v13.1h9.5V46.6zM31.8 66.8h-9.5v14.1h9.5V66.8z"></path><path fill="none" stroke="currentColor" stroke-width="3" stroke-linecap="round" stroke-linejoin="round" stroke-miterlimit="10" d="M50.1 66.8h-9.5v24.4h9.5V66.8z"></path><path fill="currentColor" stroke="currentColor" stroke-width="3" stroke-linecap="round" stroke-linejoin="round" stroke-miterlimit="10" d="M68.4 66.8h-9.5v14.1h9.5V66.8zm18.3 0h-9.5v14.1h9.5V66.8z"></path><path fill="none" stroke="currentColor" stroke-width="3" stroke-linecap="round" stroke-linejoin="round" stroke-miterlimit="10" d="M94.2 13.5H15.3v4.9h78.9v-4.9z"></path></svg>