<svg viewBox="0 0 42 42" xmlns="http://www.w3.org/2000/svg" class="css-11hrkin"><path fill-rule="evenodd" clip-rule="evenodd" d="M1.52734 37.6853C1.52734 37.369 1.78376 37.1125 2.10007 37.1125H40.2819C40.5982 37.1125 40.8546 37.369 40.8546 37.6853C40.8546 38.0016 40.5982 38.258 40.2819 38.258H2.10007C1.78376 38.258 1.52734 38.0016 1.52734 37.6853Z"></path><path d="M23.2915 19.1672C24.1315 16.8381 22.9478 14.2417 20.5806 13.4017C18.2515 12.5235 15.6551 13.7453 14.8151 16.0744C14.1278 17.9453 14.7769 19.969 16.2278 21.1526C15.7696 22.3744 13.4024 28.7508 12.7533 30.5453C12.0278 32.569 13.5551 32.4163 13.6696 32.4544C13.7842 32.4926 15.8078 30.6217 15.8078 30.6217L15.846 29.4763L16.8387 28.1399L16.9151 26.6508C16.9151 26.6508 18.2515 22.9472 18.6715 22.069C20.6569 22.2599 22.566 21.1144 23.2915 19.1672Z"></path><path fill-rule="evenodd" clip-rule="evenodd" d="M20.7768 12.8639C23.4458 13.8142 24.7746 16.7416 23.8297 19.3615L23.8276 19.3671C23.0613 21.424 21.1201 22.6891 19.0353 22.662C18.8125 23.1935 18.4803 24.0632 18.1718 24.8895C17.9792 25.4057 17.7995 25.8948 17.6679 26.2549C17.6022 26.4349 17.5485 26.5827 17.5112 26.6853L17.4822 26.7654L17.4102 28.1693C17.4044 28.2821 17.3654 28.3907 17.298 28.4815L16.4119 29.6742L16.3797 30.6408C16.3746 30.7938 16.3085 30.9384 16.1961 31.0423L15.8073 30.6217C16.1961 31.0423 16.1961 31.0423 16.1961 31.0423L16.1728 31.0638L16.1078 31.1237C16.0518 31.1751 15.9718 31.2485 15.8754 31.3365C15.6829 31.5122 15.4245 31.7466 15.1619 31.9803C14.9005 32.2129 14.6305 32.4488 14.4163 32.6258C14.3106 32.7131 14.2101 32.7931 14.1275 32.8522C14.0881 32.8804 14.0388 32.9141 13.9879 32.9421C13.9639 32.9553 13.9213 32.9774 13.8681 32.9954C13.8675 32.9956 13.8667 32.9958 13.8658 32.9961C13.8414 33.0045 13.7218 33.0455 13.5701 33.0186C13.5662 33.0184 13.5616 33.0181 13.5559 33.0177C13.5489 33.0172 13.5402 33.0167 13.5289 33.0159C13.4728 33.0122 13.3873 33.0058 13.2889 32.9908C13.0987 32.9616 12.8186 32.8942 12.5617 32.7095C12.2863 32.5116 12.0753 32.2053 12.0081 31.7817C11.9445 31.3805 12.0145 30.9076 12.2136 30.3521L12.2142 30.3506C12.8145 28.6909 14.8791 23.1267 15.5533 21.32C14.1458 19.9668 13.5524 17.8516 14.2764 15.8786C15.2234 13.2556 18.1468 11.8755 20.7768 12.8639ZM13.5834 33.0196C13.5965 33.0207 13.5937 33.0211 13.5809 33.0194C13.5818 33.0195 13.5826 33.0196 13.5834 33.0196ZM15.2429 30.3627L15.2731 29.4572C15.277 29.3408 15.3163 29.2283 15.3857 29.1348L16.2751 27.9375L16.3426 26.6215C16.3455 26.5651 16.3567 26.5095 16.3759 26.4564L16.9146 26.6508C16.3759 26.4564 16.3758 26.4565 16.3759 26.4564L16.4344 26.2947C16.4719 26.1913 16.5259 26.0428 16.592 25.8619C16.7241 25.5002 16.9048 25.0084 17.0987 24.489C17.4812 23.4642 17.9306 22.2896 18.1543 21.8219C18.2581 21.6049 18.4863 21.4759 18.7258 21.4989C20.4561 21.6653 22.119 20.6687 22.7532 18.9701C23.4857 16.9342 22.4496 14.6728 20.3885 13.9415L20.378 13.9376C18.3518 13.1737 16.0864 14.2363 15.3533 16.2688L15.3522 16.272C14.7541 17.9002 15.3165 19.6705 16.5894 20.7089C16.7798 20.8642 16.8499 21.1237 16.7636 21.3537C16.3057 22.5749 13.9399 28.9471 13.2916 30.7394C13.1283 31.1952 13.1172 31.4619 13.1395 31.6023C13.1582 31.7204 13.2002 31.7578 13.2302 31.7794C13.2788 31.8143 13.3566 31.8423 13.4624 31.8585C13.4861 31.8622 13.5093 31.8649 13.5321 31.8672C13.5747 31.8341 13.6264 31.7925 13.6868 31.7427C13.8843 31.5795 14.1416 31.3549 14.4004 31.1246C14.6581 30.8953 14.9127 30.6643 15.1032 30.4905C15.155 30.4432 15.202 30.4002 15.2429 30.3627Z"></path><path fill-rule="evenodd" clip-rule="evenodd" d="M19.2823 16.1125C18.8184 16.1125 18.4423 16.4886 18.4423 16.9525C18.4423 17.4164 18.8184 17.7925 19.2823 17.7925C19.7462 17.7925 20.1223 17.4164 20.1223 16.9525C20.1223 16.4886 19.7462 16.1125 19.2823 16.1125ZM17.2969 16.9525C17.2969 15.856 18.1858 14.967 19.2823 14.967C20.3789 14.967 21.2678 15.856 21.2678 16.9525C21.2678 18.049 20.3789 18.938 19.2823 18.938C18.1858 18.938 17.2969 18.049 17.2969 16.9525Z"></path><path d="M27.0327 16.1891C26.3454 13.7836 23.8636 12.4091 21.4581 13.0964C19.0527 13.7836 17.6781 16.2654 18.3654 18.6709C18.8999 20.58 20.6181 21.84 22.489 21.9164C22.8327 23.1764 24.6654 29.7436 25.1999 31.5763C25.7727 33.6382 26.9181 32.6073 27.0709 32.5691C27.1854 32.5309 27.7581 29.82 27.7581 29.82L27.109 28.9418L27.1472 27.3L26.3454 26.04C26.3454 26.04 25.2763 22.26 25.0854 21.3054C26.7272 20.2364 27.6054 18.1745 27.0327 16.1891Z" fill="white"></path><path fill-rule="evenodd" clip-rule="evenodd" d="M21.3004 12.5455C24.0089 11.7716 26.8081 13.3209 27.5828 16.0309C28.1899 18.1367 27.3515 20.3039 25.7272 21.5517C25.8624 22.1157 26.1054 23.0252 26.339 23.8794C26.4842 24.4102 26.6235 24.9115 26.7266 25.2801C26.7781 25.4644 26.8205 25.6155 26.85 25.7204L26.8734 25.8034L27.63 26.9924C27.6909 27.0881 27.722 27.1997 27.7194 27.3132L27.6858 28.7589L28.2183 29.4794C28.3156 29.6111 28.3519 29.7781 28.3181 29.9382L27.7577 29.8198C28.3181 29.9382 28.3181 29.9382 28.3181 29.9382L28.318 29.9388L28.3115 29.9694L28.2929 30.0563C28.2769 30.131 28.254 30.2378 28.2261 30.3659C28.1703 30.6219 28.0946 30.9645 28.0151 31.3088C27.936 31.6518 27.8518 32.0023 27.7792 32.272C27.7434 32.4052 27.7077 32.529 27.6747 32.6253C27.659 32.6713 27.6386 32.7268 27.6138 32.7786C27.6022 32.8031 27.581 32.845 27.5493 32.8896C27.5489 32.8901 27.5484 32.8908 27.5479 32.8916C27.5323 32.9137 27.4494 33.0319 27.2898 33.098C27.2833 33.1018 27.2742 33.1071 27.2611 33.1148L27.255 33.1185C27.209 33.1457 27.137 33.1882 27.053 33.2308C26.8824 33.3172 26.6152 33.4287 26.2997 33.4327C25.9595 33.437 25.6069 33.3151 25.3045 33.009C25.0201 32.721 24.8057 32.2969 24.6487 31.7331C24.1534 30.0346 22.5573 24.3212 22.0422 22.4531C20.1033 22.2081 18.3782 20.8396 17.8139 18.8266C17.0409 16.1183 18.5904 13.3198 21.3004 12.5455ZM27.3029 33.0906C27.3098 33.0868 27.3083 33.0881 27.3001 33.0921C27.3012 33.0915 27.3021 33.091 27.3029 33.0906ZM27.1436 29.9525L26.6481 29.2821C26.5725 29.1799 26.5331 29.0554 26.5361 28.9283L26.5702 27.4605L25.8618 26.3473C25.8319 26.3004 25.809 26.2493 25.7939 26.1957L26.345 26.0398C25.7939 26.1957 25.7939 26.1957 25.7939 26.1957L25.7474 26.0307C25.7177 25.9252 25.6751 25.7735 25.6234 25.5885C25.52 25.2185 25.3801 24.7151 25.2342 24.1816C24.9454 23.1261 24.6237 21.9193 24.5234 21.4176C24.4774 21.1878 24.5761 20.9532 24.7725 20.8253C26.2182 19.8839 26.9801 18.0743 26.482 16.3477L26.4816 16.3463C25.8814 14.2458 23.7172 13.0463 21.6151 13.6469C19.5146 14.247 18.3151 16.4113 18.9157 18.5134L18.9165 18.5163C19.381 20.1753 20.8773 21.2772 22.512 21.344C22.7614 21.3541 22.9755 21.5247 23.0412 21.7655C23.3844 23.0239 25.2161 29.5876 25.7494 31.4158L25.7514 31.4229C25.8806 31.8883 26.0239 32.1072 26.1195 32.2041C26.1978 32.2833 26.2485 32.2878 26.2853 32.2874C26.3468 32.2866 26.4304 32.2621 26.5355 32.2089C26.5649 32.194 26.5924 32.1788 26.62 32.1629C26.6354 32.1115 26.6532 32.0485 26.6731 31.9745C26.7401 31.7252 26.8206 31.3909 26.899 31.0513C26.977 30.7131 27.0516 30.3756 27.1068 30.1221C27.1204 30.0601 27.1327 30.0031 27.1436 29.9525Z"></path><path fill-rule="evenodd" clip-rule="evenodd" d="M22.5274 15.9216C22.0635 15.9216 21.6874 16.2977 21.6874 16.7616C21.6874 17.2255 22.0635 17.6016 22.5274 17.6016C22.9914 17.6016 23.3674 17.2255 23.3674 16.7616C23.3674 16.2977 22.9914 15.9216 22.5274 15.9216ZM20.542 16.7616C20.542 15.665 21.4309 14.7761 22.5274 14.7761C23.624 14.7761 24.5129 15.665 24.5129 16.7616C24.5129 17.8581 23.624 18.747 22.5274 18.747C21.4309 18.747 20.542 17.8581 20.542 16.7616Z"></path><path fill-rule="evenodd" clip-rule="evenodd" d="M24.8442 5.05113C23.7778 4.85919 22.6786 4.98438 21.6827 5.41118C20.6868 5.83798 19.838 6.54763 19.2415 7.45218C18.645 8.35674 18.3271 9.41643 18.3271 10.4999C18.3271 10.8162 18.0707 11.0727 17.7544 11.0727C17.4381 11.0727 17.1816 10.8162 17.1816 10.4999C17.1816 9.19225 17.5654 7.91331 18.2852 6.82161C19.0051 5.72991 20.0295 4.87344 21.2315 4.35834C22.4334 3.84323 23.7601 3.69214 25.0471 3.92379C26.3341 4.15544 27.5248 4.75964 28.4718 5.66152C29.4187 6.5634 30.0801 7.72331 30.3742 8.9975C30.6682 10.2717 30.5819 11.6042 30.1259 12.8298C29.67 14.0554 28.8644 15.1203 27.809 15.8925C26.7537 16.6646 25.4949 17.1102 24.1888 17.1738C23.8729 17.1892 23.6043 16.9456 23.5889 16.6297C23.5735 16.3137 23.8171 16.0451 24.133 16.0297C25.2153 15.977 26.2582 15.6078 27.1326 14.968C28.0071 14.3282 28.6746 13.4459 29.0524 12.4304C29.4302 11.4149 29.5017 10.3108 29.2581 9.25506C29.0144 8.1993 28.4664 7.23823 27.6818 6.49096C26.8972 5.74369 25.9106 5.24307 24.8442 5.05113Z"></path></svg>