<svg xmlns="http://www.w3.org/2000/svg" viewBox="0 0 96 96" height="72" width="72" stroke-width="2.4" stroke-miterlimit="10" stroke-linecap="round" stroke-linejoin="round"><g fill="none" stroke="currentColor"><g id="key1"><path d="M63.9,52.2c4.9-1.8,8.4-6.4,8.4-11.9c0-3.1-1.1-5.9-3-8.2c-2.3-2.8-5.8-4.5-9.7-4.5c-7,0-12.7,5.7-12.7,12.7 c0,5.5,3.5,10.1,8.4,11.9v24l4.4,4l4.3-4v-4.4L60.8,70l3.1-2.9l-3.1-2.9l3.1-1.9L63.9,52.2z"></path><circle cx="59.5" cy="38.3" r="3.8"></circle><path d="M47.9,23.5c0.2-0.6,0.5-1.3,0.8-1.8c2.2-4.1,6.8-6.6,11.7-5.8c6.2,0.9,10.5,6.7,9.6,12.9c-0.8,5.2-4.9,9-9.9,9.6"></path></g><g id="key2"><path d="M52.6,28.9c-1.2-0.5-2.4-0.8-3.6-1c-4.2-0.5-8.6,1.1-11.4,4.7c-3.4,4.3-3.6,10.1-0.9,14.5l-15,18.8l0.9,5.9l5.9-0.4l2.7-3.4 L30,64.5l4.2-0.3l-0.6-4.2l3.6,0.5l6.3-7.9"></path></g></g></svg>