<svg xmlns="http://www.w3.org/2000/svg" viewBox="0 0 96 96" height="72" width="72" stroke-width="2.4" stroke-miterlimit="10" stroke-linecap="round" stroke-linejoin="round"><g fill="none" stroke="currentColor"><g id="person"><circle cx="27.2" cy="45.8" r="9.3"></circle><path d="M42.7,81.1c0,0,0-5.9,0-5.9c0-8.6-6.9-15.5-15.5-15.5c-8.6,0-15.5,6.9-15.5,15.5c0,0.1,0,5.9,0,5.9"></path></g><g id="thought-bubble"><path d="M34.4,52.3h35.7c7.7,0,13.9-5.4,14.2-12.2h0v-1.6h0c-0.3-6.8-6.6-12.2-14.2-12.2c-0.5,0-1,0-1.4,0.1c-1.4-6-7.3-11.5-14.4-11.5 s-13,5.5-14.4,11.5c-0.5,0-0.9-0.1-1.4-0.1c-5.6,0-10.5,2.9-12.8,7.1c0,0.1-0.6,1-1.3,3.2"></path></g><g id="house"><polygon points="54.2,27.3 46.6,32.9 46.6,44.3 61.9,44.3 61.9,32.9"></polygon><path d="M56.3,44.3v-6.5c0-0.2-0.1-0.3-0.3-0.3h-3.5c-0.2,0-0.3,0.1-0.3,0.3v6.5H56.3z"></path><polyline points="44.4,34.5 49.3,30.9 54.2,27.3 59.1,30.9 64,34.5"></polyline></g></g></svg>